<?xml version="1.0" encoding="UTF-8" standalone="no"?>
<svg
   version="1.1"
   id="Layer_1"
   x="0px"
   y="0px"
   width="100%"
   viewBox="0 0 512 512"
   enable-background="new 0 0 512 512"
   xml:space="preserve"
   sodipodi:docname="android-chrome-512x512_adobe_express.svg"
   inkscape:version="1.1.2 (0a00cf5339, 2022-02-04)"
   xmlns:inkscape="http://www.inkscape.org/namespaces/inkscape"
   xmlns:sodipodi="http://sodipodi.sourceforge.net/DTD/sodipodi-0.dtd"
   xmlns="http://www.w3.org/2000/svg"
   xmlns:svg="http://www.w3.org/2000/svg"><defs
   id="defs11" /><sodipodi:namedview
   id="namedview9"
   pagecolor="#ffffff"
   bordercolor="#666666"
   borderopacity="1.0"
   inkscape:pageshadow="2"
   inkscape:pageopacity="0.0"
   inkscape:pagecheckerboard="0"
   showgrid="false"
   inkscape:zoom="1.515625"
   inkscape:cx="256"
   inkscape:cy="255.6701"
   inkscape:window-width="1846"
   inkscape:window-height="1016"
   inkscape:window-x="0"
   inkscape:window-y="0"
   inkscape:window-maximized="1"
   inkscape:current-layer="Layer_1" />
<path
   fill="#000000"
   opacity="1.000000"
   stroke="none"
   d=" M0.999999,137.000000   C1.000000,91.676567 1.000000,46.353134 0.999999,1.022276   C171.619492,1.014851 342.238983,1.014851 512.929199,1.014851   C512.929199,171.582184 512.929199,342.164429 512.929199,512.873291   C342.455139,512.873291 171.910141,512.873291 1.000000,512.873291   C1.000000,413.976959 1.000000,314.953491 1.207821,215.126770   C2.269130,215.245132 3.122618,216.166718 3.981155,217.549789   C5.588954,233.355286 6.611728,248.789749 8.986045,264.013428   C10.745958,275.297638 15.327336,286.170349 16.786444,297.467285   C20.420992,325.607361 23.263285,353.859528 25.893318,382.116089   C27.693029,401.451843 28.735584,420.862732 29.865746,440.254639   C30.774296,455.844025 31.282255,471.456512 32.027908,487.055878   C32.162052,489.862213 32.206345,492.773804 33.030090,495.405853   C33.479103,496.840546 35.393410,498.661682 36.793446,498.797516   C41.250313,499.229889 45.795151,499.182678 50.262882,498.807465   C51.553288,498.699127 53.549877,497.006683 53.757401,495.790436   C54.508003,491.391571 54.650845,486.887482 54.994106,482.420898   C55.744946,472.650574 56.425938,462.874603 57.230560,453.108795   C58.443436,438.387970 59.779789,423.677307 60.982510,408.955688   C61.793663,399.026917 62.391567,389.080658 63.216373,379.153168   C64.411880,364.763885 65.800270,350.390472 66.968636,335.999146   C68.097153,322.098602 68.948273,308.174591 70.203979,294.286469   C70.372414,292.423584 71.775894,290.124512 73.318153,289.018158   C89.234306,277.600555 106.112465,275.631287 124.120827,283.992432   C137.736420,290.314087 146.954666,301.319153 154.455750,313.502716   C162.867279,327.164978 170.187897,341.548706 177.253387,355.975922   C184.338715,370.443695 190.080673,385.571259 197.214508,400.012909   C206.554977,418.921692 216.125992,437.761169 226.618256,456.044830   C238.886353,477.422943 258.039612,486.385651 282.759735,486.158722   C341.248108,485.621796 399.744873,486.023163 458.238007,485.919312   C463.187500,485.910522 468.237305,485.422607 473.065094,484.360199   C488.312103,481.005005 497.689941,470.130035 505.917969,457.427521   C506.777161,441.882538 502.644928,428.042786 494.782440,415.359619   C483.840851,397.709442 465.994080,388.959167 447.951233,381.167114   C436.065552,376.034119 423.262573,373.047424 410.954224,368.853363   C408.254883,367.933594 406.575989,368.114899 404.298035,369.969604   C401.961365,371.871979 398.925903,373.119507 396.005859,374.066345   C383.823975,378.016479 371.455078,376.516754 359.087219,375.031677   C339.467072,372.675720 322.854187,364.223419 308.916443,350.389191   C296.803986,338.366699 287.988678,323.947174 280.129547,309.007843   C274.822205,298.919159 270.842346,288.141174 265.823700,277.889374   C258.358521,262.639984 250.662460,247.497574 242.747955,232.476501   C238.034470,223.530746 233.112015,214.644119 227.575912,206.194519   C218.914505,192.974915 210.252121,179.677017 200.492325,167.276337   C188.785828,152.402237 176.508163,137.875412 163.386261,124.249374   C152.575790,113.023560 140.267899,103.221466 128.440918,92.999825   C121.511307,87.010803 114.585083,80.902336 107.024017,75.782974   C90.091324,64.318382 72.263527,54.392105 52.120792,49.692982   C45.049416,48.043289 37.425415,47.403103 31.643831,53.113380   C28.200735,56.514011 25.347996,60.748615 23.070904,65.053207   C12.493566,85.048485 7.608249,106.796661 3.915560,128.899551   C3.450310,131.684326 1.996039,134.303894 0.999999,137.000000  z"
   id="path2"
   style="fill:none" />
<path
   fill="#DD2E44"
   opacity="1.000000"
   stroke="none"
   d=" M3.976108,217.088303   C3.122618,216.166718 2.269130,215.245132 1.207821,214.661774   C1.000000,189.312439 1.000000,163.624878 0.999999,137.468658   C1.996039,134.303894 3.450310,131.684326 3.915560,128.899551   C7.608249,106.796661 12.493566,85.048485 23.070904,65.053207   C25.347996,60.748615 28.200735,56.514011 31.643831,53.113380   C37.425415,47.403103 45.049416,48.043289 52.120792,49.692982   C72.263527,54.392105 90.091324,64.318382 107.024017,75.782974   C114.585083,80.902336 121.511307,87.010803 128.440918,92.999825   C140.267899,103.221466 152.575790,113.023560 163.386261,124.249374   C176.508163,137.875412 188.785828,152.402237 200.492325,167.276337   C210.252121,179.677017 218.914505,192.974915 227.575912,206.194519   C233.112015,214.644119 238.034470,223.530746 242.747955,232.476501   C250.662460,247.497574 258.358521,262.639984 265.823700,277.889374   C270.842346,288.141174 274.822205,298.919159 280.129547,309.007843   C287.988678,323.947174 296.803986,338.366699 308.916443,350.389191   C322.854187,364.223419 339.467072,372.675720 359.087219,375.031677   C371.455078,376.516754 383.823975,378.016479 396.005859,374.066345   C398.925903,373.119507 401.961365,371.871979 404.298035,369.969604   C406.575989,368.114899 408.254883,367.933594 410.954224,368.853363   C423.262573,373.047424 436.065552,376.034119 447.951233,381.167114   C465.994080,388.959167 483.840851,397.709442 494.782440,415.359619   C502.644928,428.042786 506.777161,441.882538 505.458984,457.414307   C432.326965,457.833160 359.702087,457.603241 287.080566,457.995911   C275.209076,458.060120 266.967529,453.518005 260.392792,444.508331   C257.943237,441.151581 255.405289,437.760986 253.600174,434.049011   C245.011322,416.387329 236.701950,398.590027 228.215683,380.878082   C217.069412,357.614349 206.580231,333.996307 194.453064,311.253357   C182.865494,289.522369 167.721466,270.247009 147.707611,255.302887   C115.561943,231.300064 78.476959,222.028259 39.308376,219.103134   C27.546396,218.224747 15.754372,217.748672 3.976108,217.088303  z"
   id="path4" />
<path
   fill="#292F33"
   opacity="1.000000"
   stroke="none"
   d=" M3.981158,217.549789   C15.754372,217.748672 27.546396,218.224747 39.308376,219.103134   C78.476959,222.028259 115.561943,231.300064 147.707611,255.302887   C167.721466,270.247009 182.865494,289.522369 194.453064,311.253357   C206.580231,333.996307 217.069412,357.614349 228.215683,380.878082   C236.701950,398.590027 245.011322,416.387329 253.600174,434.049011   C255.405289,437.760986 257.943237,441.151581 260.392792,444.508331   C266.967529,453.518005 275.209076,458.060120 287.080566,457.995911   C359.702087,457.603241 432.326965,457.833160 505.409729,457.868835   C497.689941,470.130035 488.312103,481.005005 473.065094,484.360199   C468.237305,485.422607 463.187500,485.910522 458.238007,485.919312   C399.744873,486.023163 341.248108,485.621796 282.759735,486.158722   C258.039612,486.385651 238.886353,477.422943 226.618256,456.044830   C216.125992,437.761169 206.554977,418.921692 197.214508,400.012909   C190.080673,385.571259 184.338715,370.443695 177.253387,355.975922   C170.187897,341.548706 162.867279,327.164978 154.455750,313.502716   C146.954666,301.319153 137.736420,290.314087 124.120827,283.992432   C106.112465,275.631287 89.234306,277.600555 73.318153,289.018158   C71.775894,290.124512 70.372414,292.423584 70.203979,294.286469   C68.948273,308.174591 68.097153,322.098602 66.968636,335.999146   C65.800270,350.390472 64.411880,364.763885 63.216373,379.153168   C62.391567,389.080658 61.793663,399.026917 60.982510,408.955688   C59.779789,423.677307 58.443436,438.387970 57.230560,453.108795   C56.425938,462.874603 55.744946,472.650574 54.994106,482.420898   C54.650845,486.887482 54.508003,491.391571 53.757401,495.790436   C53.549877,497.006683 51.553288,498.699127 50.262882,498.807465   C45.795151,499.182678 41.250313,499.229889 36.793446,498.797516   C35.393410,498.661682 33.479103,496.840546 33.030090,495.405853   C32.206345,492.773804 32.162052,489.862213 32.027908,487.055878   C31.282255,471.456512 30.774296,455.844025 29.865746,440.254639   C28.735584,420.862732 27.693029,401.451843 25.893318,382.116089   C23.263285,353.859528 20.420992,325.607361 16.786444,297.467285   C15.327336,286.170349 10.745958,275.297638 8.986045,264.013428   C6.611728,248.789749 5.588954,233.355286 3.981158,217.549789  z"
   id="path6" />
</svg>
